<?xml version="1.0" standalone="no"?>
<!DOCTYPE svg PUBLIC "-//W3C//DTD SVG 20010904//EN"
 "http://www.w3.org/TR/2001/REC-SVG-20010904/DTD/svg10.dtd">
<svg version="1.0" xmlns="http://www.w3.org/2000/svg"
 width="193.000000pt" height="118.000000pt" viewBox="0 0 193.000000 118.000000"
 preserveAspectRatio="xMidYMid meet">

<g transform="translate(0.000000,118.000000) scale(0.100000,-0.100000)"
fill="#000000" stroke="none">
<path d="M874 736 c-153 -153 -164 -167 -164 -201 0 -51 53 -105 102 -105 30
0 50 17 201 168 154 155 167 171 167 204 0 49 -54 98 -107 98 -33 0 -48 -13
-199 -164z m121 -11 c35 -34 34 -86 -1 -114 -79 -62 -170 43 -99 114 13 14 36
25 50 25 14 0 37 -11 50 -25z"/>
<path d="M570 370 c0 -5 5 -10 10 -10 6 0 10 5 10 10 0 6 -4 10 -10 10 -5 0
-10 -4 -10 -10z"/>
<path d="M1465 370 c-3 -5 1 -10 10 -10 9 0 13 5 10 10 -3 6 -8 10 -10 10 -2
0 -7 -4 -10 -10z"/>
<path d="M10 310 c0 -33 4 -60 10 -60 6 0 10 16 10 35 0 34 1 35 40 35 39 0
40 -1 40 -35 0 -19 5 -35 10 -35 6 0 10 27 10 60 0 33 -4 60 -10 60 -5 0 -10
-7 -10 -15 0 -11 -11 -15 -40 -15 -29 0 -40 4 -40 15 0 8 -4 15 -10 15 -6 0
-10 -27 -10 -60z"/>
<path d="M960 350 c-17 -32 4 -50 56 -50 24 0 44 -4 44 -9 0 -15 -30 -21 -72
-14 -52 8 -44 -13 8 -23 48 -9 84 8 84 41 0 26 -21 36 -69 32 -13 -1 -26 4
-29 11 -3 10 6 13 34 11 22 -2 41 1 44 7 3 5 -16 10 -42 12 -39 3 -49 0 -58
-18z"/>
<path d="M176 324 c-21 -20 -20 -30 4 -54 22 -22 42 -25 71 -10 21 12 25 50 7
68 -17 17 -64 15 -82 -4z m69 -29 c0 -31 -49 -28 -53 3 -3 20 0 23 25 20 20
-2 28 -8 28 -23z"/>
<path d="M317 333 c-4 -3 -7 -15 -7 -25 0 -14 8 -18 36 -18 22 0 33 -4 29 -11
-4 -6 -19 -10 -33 -9 -41 3 -48 1 -32 -10 23 -15 66 -12 80 5 19 23 4 45 -30
45 -18 0 -29 4 -25 10 3 6 17 7 31 4 14 -4 24 -2 24 5 0 12 -62 16 -73 4z"/>
<path d="M430 280 c0 -33 4 -60 10 -60 6 0 10 8 10 19 0 14 6 17 25 13 29 -5
65 21 65 48 0 27 -22 40 -67 40 l-43 0 0 -60z m83 26 c7 -17 -11 -36 -34 -36
-22 0 -33 16 -25 35 7 19 52 19 59 1z"/>
<path d="M570 295 c0 -25 5 -45 10 -45 6 0 10 20 10 45 0 25 -4 45 -10 45 -5
0 -10 -20 -10 -45z"/>
<path d="M636 324 c-21 -20 -20 -30 4 -54 22 -22 46 -25 70 -10 15 10 13 11
-30 13 -37 3 -35 41 3 45 15 2 27 8 27 13 0 15 -57 10 -74 -7z"/>
<path d="M762 328 c-19 -19 -14 -45 10 -62 25 -18 64 -21 73 -6 4 6 -6 10 -24
10 -16 0 -33 5 -36 10 -4 6 10 10 34 10 44 0 46 2 31 31 -12 22 -68 27 -88 7z
m61 -15 c-7 -2 -21 -2 -30 0 -10 3 -4 5 12 5 17 0 24 -2 18 -5z"/>
<path d="M1120 320 c-21 -40 32 -85 77 -64 15 6 12 9 -12 12 -49 6 -54 22 -7
22 28 0 42 4 42 13 0 39 -81 53 -100 17z m63 -7 c-7 -2 -21 -2 -30 0 -10 3 -4
5 12 5 17 0 24 -2 18 -5z"/>
<path d="M1252 298 c4 -50 28 -65 28 -19 0 19 6 34 15 37 25 10 17 21 -16 22
-29 1 -30 0 -27 -40z"/>
<path d="M1352 295 c12 -25 27 -44 33 -42 5 2 20 22 33 45 18 31 20 42 10 42
-8 0 -21 -14 -29 -32 l-15 -31 -13 31 c-8 18 -20 32 -27 32 -10 0 -8 -11 8
-45z"/>
<path d="M1470 294 c0 -27 4 -43 10 -39 6 3 10 24 10 46 0 21 -4 39 -10 39 -5
0 -10 -21 -10 -46z"/>
<path d="M1532 328 c-19 -19 -14 -56 9 -68 25 -14 61 -9 67 8 3 9 -3 11 -20 7
-16 -4 -29 -1 -37 9 -18 21 -5 36 30 36 16 0 29 5 29 10 0 14 -64 12 -78 -2z"/>
<path d="M1662 331 c-8 -5 -12 -21 -10 -37 3 -33 43 -53 74 -39 16 8 14 9 -11
13 -49 6 -54 22 -7 22 43 0 54 14 30 38 -14 14 -57 16 -76 3z m51 -18 c-7 -2
-19 -2 -25 0 -7 3 -2 5 12 5 14 0 19 -2 13 -5z"/>
<path d="M1793 329 c-20 -20 -3 -39 34 -39 22 0 32 -4 28 -11 -4 -6 -19 -10
-33 -9 -41 3 -48 1 -32 -10 23 -15 66 -12 80 5 19 23 4 45 -30 45 -18 0 -29 4
-25 10 3 6 17 7 31 4 14 -4 24 -2 24 5 0 14 -63 14 -77 0z"/>
</g>
</svg>
